<svg width="40" height="40" viewBox="0 0 40 40" fill="none" xmlns="http://www.w3.org/2000/svg">
<circle cx="20" cy="20" r="20" fill="#BD081C"/>
<path fill-rule="evenodd" clip-rule="evenodd" d="M20.8523 8C14.3024 8 11 12.6959 11 16.6118C11 18.9826 11.8978 21.0924 13.8231 21.8777C14.1389 22.0067 14.4216 21.8822 14.5131 21.5327C14.5769 21.2905 14.7276 20.6799 14.7944 20.4257C14.8866 20.0799 14.8506 19.9592 14.5956 19.6577C14.0406 19.0029 13.6858 18.1553 13.6858 16.9546C13.6858 13.4699 16.2929 10.3513 20.4736 10.3513C24.1757 10.3513 26.2098 12.6141 26.2098 15.6345C26.2098 19.6096 24.4502 22.9645 21.8394 22.9645C20.3971 22.9645 19.3178 21.7712 19.6636 20.3087C20.0776 18.5626 20.8808 16.6771 20.8808 15.417C20.8808 14.289 20.2748 13.3477 19.0215 13.3477C17.547 13.3477 16.3627 14.8725 16.3627 16.9156C16.3627 18.2169 16.8022 19.0974 16.8022 19.0974C16.8022 19.0974 15.2931 25.4899 15.0291 26.6097C14.5026 28.8395 14.9504 31.5726 14.9879 31.8486C15.0104 32.0121 15.2204 32.0511 15.3156 31.9266C15.4514 31.7496 17.2072 29.5812 17.8042 27.4152C17.973 26.8024 18.774 23.6261 18.774 23.6261C19.2525 24.5396 20.6528 25.3444 22.1416 25.3444C26.5735 25.3444 29.5796 21.304 29.5796 15.8955C29.5796 11.8079 26.1168 8 20.8523 8Z" fill="white"/>
</svg>
