<svg width="40" height="40" viewBox="0 0 40 40" fill="none" xmlns="http://www.w3.org/2000/svg">
<circle cx="20" cy="20" r="20" fill="#0B356B"/>
<path d="M27.3174 29.7474C26.5679 30.468 25.0299 31.0033 23.5558 31.0282C23.5001 31.0292 23.4455 31.0297 23.3907 31.0297H23.3902C18.5415 31.0294 17.2478 27.3282 17.2478 25.1411V18.4204C17.2478 18.365 17.2029 18.32 17.1475 18.32H14.8029C14.7474 18.32 14.7025 18.2751 14.7025 18.2196V15.1581C14.7025 15.1171 14.7281 15.0806 14.7663 15.0658C17.2722 14.0903 18.6716 12.152 19.0397 9.15403C19.0602 8.98747 19.1976 8.98293 19.199 8.98293H22.3287C22.3842 8.98293 22.4291 9.02788 22.4291 9.0833V14.4642C22.4291 14.5196 22.4741 14.5645 22.5295 14.5645H26.4253C26.4808 14.5645 26.5257 14.6095 26.5257 14.6649V18.2196C26.5257 18.2751 26.4808 18.32 26.4253 18.32H22.5127C22.4573 18.32 22.4123 18.365 22.4123 18.4205L22.4124 24.8076C22.4355 26.2457 23.1315 26.9747 24.4812 26.9747C25.025 26.9747 25.6479 26.8482 26.2166 26.6309C26.2698 26.6106 26.3285 26.6377 26.3466 26.6916L27.3419 29.6419C27.3544 29.6791 27.3457 29.7203 27.3174 29.7474ZM22.7413 32C25.1428 32 27.5222 31.145 28.3094 30.1092L28.4671 29.9016L26.9785 25.4895C26.9647 25.4486 26.9264 25.4212 26.8834 25.4212H23.5578C23.5128 25.4212 23.4721 25.3925 23.4607 25.3489C23.422 25.2018 23.3988 25.0219 23.3952 24.7996V19.4034C23.3952 19.3479 23.4402 19.3029 23.4956 19.3029H27.4082C27.4637 19.3029 27.5086 19.258 27.5086 19.2025V13.682C27.5086 13.6266 27.4637 13.5816 27.4082 13.5816H23.5124C23.457 13.5816 23.412 13.5367 23.412 13.4812V8.10041C23.412 8.04499 23.3671 8 23.3116 8H16.4794C15.9909 8 15.4271 8.36235 15.3446 9.03404C15.0035 11.8116 13.7296 13.478 11.3357 14.278L11.0686 14.3672C11.0276 14.3809 11 14.4192 11 14.4624V19.2025C11 19.258 11.0449 19.3029 11.1004 19.3029H13.5453V25.1411C13.5453 29.8016 16.7733 32 22.7413 32Z" fill="white"/>
</svg>
